<?xml version="1.0" encoding="iso-8859-1"?>
<!-- Generator: Adobe Illustrator 19.0.0, SVG Export Plug-In . SVG Version: 6.00 Build 0)  -->
<svg version="1.1" id="Layer_1" xmlns="http://www.w3.org/2000/svg" xmlns:xlink="http://www.w3.org/1999/xlink" x="0px" y="0px"
	 viewBox="0 0 281.19 281.19" style="enable-background:new 0 0 281.19 281.19;" xml:space="preserve">
<g>
	<path style="fill:#808285;" d="M223.697,276.19H57.493c-5.523,0-10-4.477-10-10V15c0-5.523,4.477-10,10-10h166.203
		c5.523,0,10,4.477,10,10v251.19C233.697,271.713,229.219,276.19,223.697,276.19z"/>
	<rect x="47.493" y="47.974" style="fill:#80D0E1;" width="186.203" height="159.621"/>
	<rect x="114.594" y="226.262" style="fill:#A7A9AC;" width="52" height="31"/>
	<g>
		<path style="fill:#393654;" d="M223.697,0H57.493c-8.271,0-15,6.729-15,15c0,2.874,0,235.382,0,251.19c0,8.271,6.729,15,15,15
			h166.203c8.271,0,15-6.729,15-15c0-15.812,0-248.32,0-251.19C238.697,6.729,231.967,0,223.697,0z M57.493,10h166.203
			c2.757,0,5,2.243,5,5v27.974H52.493V15C52.493,12.243,54.736,10,57.493,10z M228.697,202.595H52.493V52.974h176.203V202.595z
			 M223.697,271.19H57.493c-2.757,0-5-2.243-5-5v-53.595h176.203v53.595C228.697,268.947,226.453,271.19,223.697,271.19z"/>
		<path style="fill:#393654;" d="M113.594,30.595h54c2.761,0,5-2.239,5-5s-2.239-5-5-5h-54c-2.761,0-5,2.239-5,5
			S110.833,30.595,113.594,30.595z"/>
		<path style="fill:#393654;" d="M185.928,30.595h7.666c2.761,0,5-2.239,5-5s-2.239-5-5-5h-7.666c-2.761,0-5,2.239-5,5
			S183.167,30.595,185.928,30.595z"/>
		<path style="fill:#393654;" d="M166.594,221.262h-52c-2.761,0-5,2.239-5,5v31c0,2.761,2.239,5,5,5h52c2.761,0,5-2.239,5-5v-31
			C171.594,223.501,169.355,221.262,166.594,221.262z M161.594,252.262h-42v-21h42V252.262z"/>
		<path style="fill:#393654;" d="M92.928,236.762H69.16c-2.761,0-5,2.239-5,5s2.239,5,5,5h23.769c2.761,0,5-2.239,5-5
			S95.689,236.762,92.928,236.762z"/>
		<path style="fill:#393654;" d="M212.029,236.762H188.26c-2.761,0-5,2.239-5,5s2.239,5,5,5h23.769c2.761,0,5-2.239,5-5
			S214.792,236.762,212.029,236.762z"/>
	</g>
</g>
<g>
</g>
<g>
</g>
<g>
</g>
<g>
</g>
<g>
</g>
<g>
</g>
<g>
</g>
<g>
</g>
<g>
</g>
<g>
</g>
<g>
</g>
<g>
</g>
<g>
</g>
<g>
</g>
<g>
</g>
</svg>
