<?xml version="1.0" encoding="iso-8859-1"?>
<!-- Generator: Adobe Illustrator 16.0.0, SVG Export Plug-In . SVG Version: 6.00 Build 0)  -->
<!DOCTYPE svg PUBLIC "-//W3C//DTD SVG 1.1//EN" "http://www.w3.org/Graphics/SVG/1.1/DTD/svg11.dtd">
<svg version="1.1" id="Capa_1" xmlns="http://www.w3.org/2000/svg" xmlns:xlink="http://www.w3.org/1999/xlink" x="0px" y="0px"
	 width="45.839px" height="45.839px" viewBox="0 0 45.839 45.839" style="enable-background:new 0 0 45.839 45.839;"
	 xml:space="preserve">
<g>
	<g>
		<circle cx="22.92" cy="22.921" r="5.613"/>
		<path d="M22.92,6.453c-9.08,0-16.467,7.386-16.467,16.466c0,9.081,7.387,16.47,16.467,16.47s16.468-7.39,16.468-16.47
			C39.387,13.839,32,6.453,22.92,6.453z M22.92,35.559c-6.968,0-12.637-5.67-12.637-12.64c0-6.967,5.669-12.635,12.637-12.635
			c6.968,0,12.638,5.667,12.638,12.635C35.557,29.887,29.887,35.559,22.92,35.559z"/>
		<path d="M43.054,33.859c1.773-3.252,2.784-6.98,2.784-10.939c0-3.92-0.994-7.613-2.736-10.844
			c0.058-0.045,0.126-0.066,0.179-0.119c1.268-1.266,1.963-2.949,1.963-4.74s-0.695-3.474-1.963-4.74
			c-1.267-1.267-2.949-1.964-4.74-1.964S35.065,1.21,33.8,2.477c-0.062,0.062-0.087,0.142-0.139,0.209
			C30.454,0.976,26.801,0,22.92,0c-3.988,0-7.74,1.029-11.01,2.828c-0.067-0.1-0.109-0.211-0.197-0.298
			c-1.266-1.267-2.949-1.964-4.741-1.964c-1.791,0-3.475,0.697-4.739,1.964C0.966,3.796,0.268,5.48,0.268,7.27
			c0,1.791,0.698,3.474,1.965,4.74c0.119,0.12,0.266,0.188,0.405,0.27c-1.677,3.182-2.637,6.799-2.637,10.639
			c0,3.933,0.997,7.636,2.749,10.873c-0.163,0.086-0.328,0.171-0.465,0.308c-1.267,1.266-1.964,2.949-1.964,4.74
			s0.697,3.475,1.964,4.74c1.267,1.268,2.95,1.964,4.74,1.964c1.791,0,3.475-0.696,4.741-1.964c0.14-0.141,0.227-0.309,0.313-0.475
			c3.23,1.742,6.921,2.733,10.84,2.733c3.863,0,7.504-0.97,10.699-2.666c0.076,0.12,0.131,0.248,0.234,0.353
			c1.268,1.268,2.95,1.965,4.74,1.965c1.791,0,3.475-0.697,4.74-1.965c1.266-1.266,1.964-2.949,1.964-4.739
			c0-1.791-0.698-3.474-1.964-4.74C43.251,33.964,43.146,33.925,43.054,33.859z M40.571,5.187c0.543,0.542,0.842,1.264,0.842,2.031
			c0,0.572-0.168,1.119-0.477,1.585c-1.162-1.481-2.505-2.812-3.99-3.968C38.051,4.118,39.62,4.236,40.571,5.187z M4.098,7.272
			c0-0.767,0.3-1.489,0.843-2.031c0.988-0.989,2.641-1.066,3.748-0.253C7.204,6.169,5.877,7.533,4.724,9.041
			C4.326,8.536,4.098,7.924,4.098,7.272z M4.994,40.872c-0.543-0.542-0.842-1.265-0.842-2.031c0-0.692,0.256-1.343,0.703-1.864
			c1.175,1.506,2.528,2.857,4.036,4.029C7.788,41.943,6.028,41.904,4.994,40.872z M4.252,22.92c0-10.294,8.374-18.667,18.668-18.667
			s18.668,8.374,18.668,18.667S33.214,41.587,22.92,41.587S4.252,33.213,4.252,22.92z M40.625,40.818
			c-0.99,0.992-2.648,1.065-3.757,0.246c1.502-1.158,2.855-2.49,4.031-3.977c0.363,0.49,0.567,1.077,0.567,1.698
			C41.467,39.555,41.169,40.275,40.625,40.818z"/>
	</g>
</g>
<g>
</g>
<g>
</g>
<g>
</g>
<g>
</g>
<g>
</g>
<g>
</g>
<g>
</g>
<g>
</g>
<g>
</g>
<g>
</g>
<g>
</g>
<g>
</g>
<g>
</g>
<g>
</g>
<g>
</g>
</svg>
